USFL
nRows=127
nColumns=2
inDegrees=yes
endheader
time	med_gas_r	
2.5	 46.238649	
2.5625	 46.294236	
2.625	 46.319055	
2.6875	 46.349172	
2.75	 46.374053	
2.8125	 46.448983	
2.875	 46.435442	
2.9375	 46.337885	
3	 46.335238	
3.0625	 46.326634	
3.125	 46.345133	
3.1875	 46.348913	
3.25	 46.358934	
3.3125	 46.348694	
3.375	 46.347075	
3.4375	 46.361611	
3.5	 46.360837	
3.5625	 46.293704	
3.625	 46.303527	
3.6875	 46.291523	
3.75	 46.242101	
3.8125	 46.266729	
3.875	 46.313065	
3.9375	 46.314352	
4	 46.390142	
4.0625	 46.352699	
4.125	 46.382105	
4.1875	 46.332708	
4.25	 46.363125	
4.3125	 46.405132	
4.375	 46.384769	
4.4375	 46.357869	
4.5	 46.370390	
4.5625	 46.346984	
4.625	 46.337695	
4.6875	 46.374501	
4.75	 46.334402	
4.8125	 46.306683	
4.875	 46.040089	
4.9375	 46.402322	
5	 42.049161	
5.0625	 41.134480	
5.125	 41.277319	
5.1875	 39.143144	
5.25	 38.969610	
5.3125	 38.938769	
5.375	 38.980441	
5.4375	 39.055510	
5.5	 39.076747	
5.5625	 39.169664	
5.625	 39.097391	
5.6875	 38.894298	
5.75	 38.696122	
5.8125	 38.819655	
5.875	 38.698073	
5.9375	 38.496467	
6	 38.476848	
6.0625	 38.077384	
6.125	 37.976048	
6.1875	 36.493450	
6.25	 36.401339	
6.3125	 36.040854	
6.375	 34.686683	
6.4375	 34.441714	
6.5	 34.454053	
6.5625	 34.500494	
6.625	 34.750990	
6.6875	 35.020241	
6.75	 35.027187	
6.8125	 35.056780	
6.875	 35.088373	
6.9375	 35.105989	
7	 35.079353	
7.0625	 34.968826	
7.125	 34.911423	
7.1875	 34.829453	
7.25	 34.693019	
7.3125	 34.586289	
7.375	 34.424079	
7.4375	 34.337508	
7.5	 34.382180	
7.5625	 34.337860	
7.625	 34.394968	
7.6875	 34.489358	
7.75	 34.485962	
7.8125	 34.493826	
7.875	 34.458928	
7.9375	 34.577984	
8	 34.625786	
8.0625	 34.572266	
8.125	 34.411905	
8.1875	 34.302857	
8.25	 34.299211	
8.3125	 34.137389	
8.375	 33.975335	
8.4375	 33.968588	
8.5	 33.861717	
8.5625	 33.886963	
8.625	 33.906572	
8.6875	 33.913982	
8.75	 33.888593	
8.8125	 34.001937	
8.875	 33.981129	
8.9375	 33.903265	
9	 33.898821	
9.0625	 33.921682	
9.125	 33.990051	
9.1875	 34.010745	
9.25	 33.907400	
9.3125	 33.853983	
9.375	 33.807635	
9.4375	 33.673707	
9.5	 33.512528	
9.5625	 33.446096	
9.625	 33.374168	
9.6875	 33.367811	
9.75	 33.437517	
9.8125	 33.625649	
9.875	 33.932460	
9.9375	 34.016745	
10	 34.568794	
10.0625	 36.281811	
10.125	 37.555264	
10.1875	 40.409629	
10.25	 43.950673	
10.3125	 46.728958	
10.375	 46.933094	
